#!OML:ASF H:\MichaelJackson\Top Level 1\Subject 1\Session 1\male.ASF
:FULLY-SPECIFIED
:DEGREES
535
root 16.0351 16.3968 -10.8209 15.9531 18.5525 -1.74323
lowerback 5.94321 4.35474 -0.723893
upperback 3.36942 5.74954 -2.8472
thorax 0.378158 2.8969 -2.83056
lowerneck -12.2821 -5.02239 5.39601
upperneck 3.75474 -7.63601 1.54071
head 3.23071 -3.62417 -0.929552
rclavicle 9.70069e-014 -1.43125e-014
rhumerus -28.3354 -1.47726 -94.5744
rradius 55.0591
rwrist -6.86318
rhand -29.7801 -33.8463
rfingers 7.12502
rthumb -3.10512 -63.8035
lclavicle 9.70069e-014 -1.43125e-014
lhumerus -47.1487 -11.3424 91.8226
lradius 51.668
lwrist 22.9774
lhand -28.757 20.3493
lfingers 7.12502
lthumb -2.11698 50.3185
rfemur -22.8218 -1.50651 23.0671
rtibia 62.7276
rfoot -1.60833 -1.22607
rtoes 10.8557
lfemur -49.2157 6.80127 -20.9243
ltibia 39.2299
lfoot -10.2531 -10.1212
ltoes 15.9488
536
root 16.0912 16.4239 -10.717 16.1377 18.5664 -1.38028
lowerback 5.84697 3.92274 -0.826901
upperback 3.36184 5.17381 -2.8453
thorax 0.388551 2.60768 -2.73565
lowerneck -12.1222 -4.74704 4.78434
upperneck 3.82975 -7.17825 1.65935
head 3.26423 -3.40105 -0.755724
rclavicle -4.25399e-014 -3.97569e-014
rhumerus -28.9236 -0.366175 -94.8066
rradius 53.9363
rwrist -6.43762
rhand -30.1162 -34.6055
rfingers 7.12502
rthumb -3.42968 -64.5576
lclavicle -4.25399e-014 -3.97569e-014
lhumerus -45.9575 -10.2006 91.2858
lradius 52.6208
lwrist 23.6023
lhand -30.7706 22.0608
lfingers 7.12502
lthumb -4.06163 52.0018
rfemur -24.9895 -2.73823 22.8661
rtibia 65.9197
rfoot 1.10296 -1.5837
rtoes 15.338
lfemur -48.6933 6.76309 -21.3829
ltibia 38.9874
lfoot -10.4816 -10.342
ltoes 16.7096
537
root 16.1458 16.4506 -10.6126 16.2114 18.5935 -1.02434
lowerback 5.87356 3.53 -0.868996
upperback 3.36597 4.65036 -2.90274
thorax 0.357594 2.34633 -2.74688
lowerneck -11.9862 -4.5089 4.32473
upperneck 3.88281 -6.797 1.81021
head 3.28603 -3.21248 -0.601675
rclavicle 2.82274e-014 -1.07344e-014
rhumerus -29.5209 0.48333 -95.083
rradius 52.8057
rwrist -5.19471
rhand -30.5667 -35.1076
rfingers 7.12502
rthumb -3.86476 -65.0523
lclavicle 2.82274e-014 -1.07344e-014
lhumerus -44.9787 -9.46621 90.7908
lradius 54.0079
lwrist 24.1048
lhand -32.6931 23.6137
lfingers 7.12502
lthumb -5.91793 53.511
rfemur -26.9766 -3.91436 22.7021
rtibia 68.8819
rfoot 3.12609 -2.0208
rtoes 18.844
lfemur -48.0401 6.67126 -21.7823
ltibia 38.7503
lfoot -10.7556 -10.504
ltoes 17.3406
538
root 16.1982 16.4767 -10.5073 16.205 18.6178 -0.668548
lowerback 5.97937 3.19412 -0.923968
upperback 3.3813 4.19978 -2.97958
thorax 0.29793 2.12147 -2.77865
lowerneck -11.8551 -4.31858 3.97261
upperneck 3.89817 -6.49606 1.97142
head 3.28896 -3.06261 -0.466652
rclavicle -6.99722e-014 7.95139e-015
rhumerus -30.1325 1.06617 -95.3203
rradius 51.6758
rwrist -3.25781
rhand -31.0608 -35.2987
rfingers 7.12502
rthumb -4.34183 -65.2342
lclavicle -6.99722e-014 7.95139e-015
lhumerus -44.1732 -9.15329 90.3966
lradius 55.7542
lwrist 24.3831
lhand -34.3909 24.7939
lfingers 7.12502
lthumb -7.55689 54.6389
rfemur -28.8156 -5.01224 22.5595
rtibia 71.6086
rfoot 4.40525 -2.38938
rtoes 21.21
lfemur -47.2892 6.54423 -22.1383
ltibia 38.5196
lfoot -11.0688 -10.6104
ltoes 17.8577
539
root 16.2485 16.5019 -10.4015 16.1459 18.6265 -0.316269
lowerback 6.17534 2.92212 -0.799137
upperback 3.38092 3.84026 -3.24033
thorax 0.20088 1.94694 -3.10986
lowerneck -11.7207 -4.1826 3.90222
upperneck 3.87851 -6.31384 2.21404
head 3.26982 -2.96399 -0.359961
rclavicle -2.26615e-014 -6.36111e-015
rhumerus -30.7454 1.14949 -95.717
rradius 50.5494
rwrist -0.788627
rhand -31.5741 -35.113
rfingers 7.12502
rthumb -4.83748 -65.0378
lclavicle -2.26615e-014 -6.36111e-015
lhumerus -43.5204 -9.50964 89.8862
lradius 57.8171
lwrist 24.4334
lhand -35.8046 25.5569
lfingers 7.12502
lthumb -8.92123 55.3483
rfemur -30.5424 -6.0166 22.4353
rtibia 74.0971
rfoot 5.00942 -2.57045
rtoes 22.5474
lfemur -46.4789 6.40776 -22.4625
ltibia 38.3003
lfoot -11.4132 -10.6694
ltoes 18.2645
540
root 16.2961 16.5262 -10.2945 16.0769 18.6122 0.0357483
lowerback 6.29226 2.75102 -1.09258
upperback 3.41795 3.59549 -3.20431
thorax 0.141899 1.82014 -2.90059
lowerneck -11.5606 -4.11196 3.63445
upperneck 3.78966 -6.17491 2.2928
head 3.22118 -2.90011 -0.273741
rclavicle 1.47299e-013 -5.88403e-014
rhumerus -31.399 1.24504 -95.5987
rradius 49.4861
rwrist 1.86203
rhand -32.1276 -34.5834
rfingers 7.12502
rthumb -5.37195 -64.4953
lclavicle 1.47299e-013 -5.88403e-014
lhumerus -42.9265 -10.0147 89.8989
lradius 60.0775
lwrist 24.058
lhand -36.864 25.927
lfingers 7.12502
lthumb -9.94347 55.6722
rfemur -32.2117 -6.91172 22.3294
rtibia 76.3439
rfoot 5.07698 -2.51977
rtoes 22.9104
lfemur -45.6574 6.28666 -22.7728
ltibia 38.0936
lfoot -11.7809 -10.7072
ltoes 18.6038
541
root 16.3419 16.5487 -10.1875 16.0259 18.5307 0.3748
lowerback 6.37916 2.61602 -1.42133
upperback 3.44561 3.39673 -3.15962
thorax 0.0919412 1.7158 -2.66312
lowerneck -11.3828 -4.04908 3.35965
upperneck 3.66566 -6.04487 2.38237
head 3.1572 -2.84121 -0.182648
rclavicle 1.86858e-014 -3.57812e-014
rhumerus -32.0589 1.22994 -95.4144
rradius 48.4671
rwrist 4.49016
rhand -32.7509 -33.7049
rfingers 7.12502
rthumb -5.97376 -63.6007
lclavicle 1.86858e-014 -3.57812e-014
lhumerus -42.3965 -10.7882 89.9641
lradius 62.5459
lwrist 23.4122
lhand -37.5716 25.9252
lfingers 7.12502
lthumb -10.6261 55.6365
rfemur -33.8694 -7.6574 22.2427
rtibia 78.293
rfoot 4.8344 -2.22829
rtoes 22.4485
lfemur -44.8005 6.21583 -23.0749
ltibia 37.7458
lfoot -12.0779 -10.7109
ltoes 18.874
